Coordinates
version=1
nRows=15
nColumns=34
inDegrees=yes

Units are S.I. units (second, meters, Newtons, ...)
If the header above contains a line with 'inDegrees', this indicates whether rotational values are in degrees (yes) or radians (no).

endheader
time	pelvis_tilt	pelvis_list	pelvis_rotation	pelvis_tx	pelvis_ty	pelvis_tz	hip_flexion_r	hip_adduction_r	hip_rotation_r	knee_angle_r	ankle_angle_r	subtalar_angle_r	mtp_angle_r	hip_flexion_l	hip_adduction_l	hip_rotation_l	knee_angle_l	ankle_angle_l	subtalar_angle_l	mtp_angle_l	lumbar_extension	lumbar_bending	lumbar_rotation	arm_flex_r	arm_add_r	arm_rot_r	elbow_flex_r	pro_sup_r	arm_flex_l	arm_add_l	arm_rot_l	elbow_flex_l	pro_sup_l
      8.80000000	    -23.82905732	      0.89576240	      3.08825994	      0.67716873	      0.56949670	     -0.05910250	    100.47659459	    -12.16466093	      0.08058620	     96.31420285	     21.70576273	    -23.08720608	      0.00000000	     99.83683783	     -7.46781884	      0.75929559	     95.58732967	     23.89624291	    -18.04826961	      0.00000000	    -25.44073085	     -0.76421527	      3.13027958	    137.31859566	     -6.84788972	     58.89306532	     22.40185767	     58.51810533	    131.61644997	     -2.97446118	     50.67846428	     15.20237558	     44.21300988
      8.81666670	    -23.83530057	      0.87493554	      3.18374981	      0.67400950	      0.55906402	     -0.06066107	    101.94800668	    -12.15093431	      0.51921397	     97.83955174	     21.68398761	    -23.39687496	      0.00000000	    101.32362325	     -7.27057440	      1.02314594	     97.15751098	     23.99966532	    -18.03679571	      0.00000000	    -26.33417882	     -0.77133150	      3.23910891	    138.18987321	     -6.54418507	     58.66779709	     22.44662560	     58.41736594	    132.35081556	     -2.84343003	     50.64593169	     15.30203129	     44.07695482
      8.83333330	    -23.87091360	      0.80328133	      3.27029875	      0.67611808	      0.54638533	     -0.06106748	    103.53023703	    -12.15674015	      0.93665207	     99.77187861	     21.59216425	    -24.11522473	      0.00000000	    102.83951713	     -7.22900607	      1.39109528	     98.99910127	     24.48589108	    -17.44593095	      0.00000000	    -27.22897592	     -0.75097969	      3.45777797	    139.45066210	     -5.82752771	     58.21974634	     20.84618214	     57.85028474	    133.14295953	     -2.35412851	     50.43882283	     14.82477131	     42.99755882
      8.85000000	    -24.26240291	      0.73419054	      3.33999317	      0.67621768	      0.53672384	     -0.06103559	    105.13094938	    -12.19195018	      1.31056333	    101.33166759	     21.89296777	    -24.28008849	      0.00000000	    104.57824363	     -7.21032697	      1.70240132	    100.56633288	     24.60161329	    -17.31468792	      0.00000000	    -27.80125620	     -0.70379533	      3.41856121	    140.35861954	     -5.52955574	     58.13067425	     20.90562606	     57.78247170	    134.00094619	     -2.30287570	     50.36605297	     14.95174173	     42.85183150
      8.86666670	    -24.54138134	      0.58959614	      3.35287975	      0.67205237	      0.52557288	     -0.06214657	    106.67683936	    -12.15957072	      1.62123061	    102.78899939	     22.05861630	    -24.47553649	      0.00000000	    106.26170455	     -7.25273151	      1.97916991	    101.89320438	     24.65267684	    -16.93484237	      0.00000000	    -28.46986197	     -0.59270632	      3.22439026	    141.05996406	     -5.23049665	     58.05875245	     20.82481468	     57.70890498	    134.95560503	     -2.30722768	     50.25879008	     14.92585925	     42.68236321
      8.88333330	    -24.69295178	      0.40037064	      3.54264339	      0.67146739	      0.51487320	     -0.06021989	    108.21147778	    -12.14422035	      1.92996081	    104.30122689	     21.86220638	    -25.24784704	      0.00000000	    107.84565238	     -7.33425363	      2.34900254	    103.24268069	     25.25369109	    -15.59708044	      0.00000000	    -29.18365479	     -0.32344929	      2.66717185	    141.57096112	     -4.49343896	     58.04501197	     19.85648349	     57.37542251	    135.92650865	     -2.28187194	     50.10384243	     14.05357488	     41.89031767
      8.90000000	    -24.72792166	      0.10878556	      3.71588602	      0.66647643	      0.50295433	     -0.06118810	    109.77425173	    -12.17999759	      2.05490486	    105.56566612	     21.73314155	    -25.57210233	      0.00000000	    109.52745026	     -7.28438747	      2.81628964	    104.50108389	     24.92527047	    -15.27512570	      0.00000000	    -30.05076885	     -0.05370973	      2.31914317	    142.18749344	     -4.49885207	     57.98000490	     19.70529830	     57.29051889	    137.03086679	     -2.22854670	     50.05556708	     14.06523292	     41.71205293
      8.91666670	    -24.39640948	     -0.27558986	      3.89049707	      0.66147229	      0.49252567	     -0.06085691	    111.03802557	    -12.07417139	      2.11611212	    106.78432819	     20.68222562	    -26.78428440	      0.00000000	    110.93062536	     -7.21402612	      3.33528437	    105.70838376	     24.68461839	    -14.60175215	      0.00000000	    -31.34583271	      0.40836336	      2.19721153	    143.20520437	     -3.89420476	     58.17496686	     18.36886683	     56.95782450	    138.49994321	     -1.84423050	     50.16210534	     12.70461788	     40.96292498
      8.93333330	    -24.42614384	     -0.57727920	      4.10957035	      0.67036046	      0.48427559	     -0.06127621	    112.27570280	    -12.21983334	      2.23632108	    108.32680176	     21.01693556	    -27.13731374	      0.00000000	    112.42204597	     -7.28363325	      3.76389476	    107.14666946	     24.50778956	    -14.17641272	      0.00000000	    -31.80491216	      0.67524352	      2.09445944	    143.00204275	     -4.26173725	     58.27999180	     18.07959046	     56.90243948	    138.88848222	     -1.66391733	     50.26111640	     12.77822576	     40.81990793
      8.95000000	    -24.70133152	     -0.87725986	      4.16929972	      0.67048959	      0.47680484	     -0.06126258	    113.38015071	    -12.20703711	      2.32046087	    109.37935890	     20.87565803	    -27.45636815	      0.00000000	    113.91100996	     -7.41392354	      4.08700463	    108.39628189	     24.79252361	    -13.23327411	      0.00000000	    -31.62185257	      1.06912971	      1.80199905	    141.86674910	     -4.09424558	     58.69336806	     17.96759165	     56.74561470	    138.64669361	     -1.73958483	     50.53157675	     12.27759420	     40.30781366
      8.96666670	    -24.53648534	     -1.25352146	      4.42467405	      0.67304672	      0.47038461	     -0.06047305	    113.94002691	    -12.45310290	      2.34449105	    110.64093074	     21.13525620	    -27.67296380	      0.00000000	    114.90414420	     -7.43505452	      4.49121163	    109.70720992	     24.46981596	    -12.97173189	      0.00000000	    -32.08701443	      1.32979750	      1.44195819	    141.14562862	     -4.39261074	     58.80265419	     17.70437203	     56.67665603	    138.68482932	     -1.61778385	     50.62025242	     12.31452590	     40.13507238
      8.98333330	    -24.69884155	     -1.56045576	      4.67612893	      0.67008149	      0.46269255	     -0.06176514	    114.87017570	    -12.76984841	      2.46224178	    111.59619635	     21.51987482	    -27.30992384	      0.00000000	    116.17636805	     -7.31554380	      4.70669205	    110.79292462	     24.40461363	    -12.55158436	      0.00000000	    -31.96090188	      1.70460458	      1.14128385	    140.19347365	     -4.60859343	     59.01466438	     17.15102225	     56.35311719	    138.33703421	     -1.58610397	     50.98012757	     11.96694823	     39.46973914
      9.00000000	    -24.36187399	     -1.68731073	      4.75251179	      0.67296925	      0.45693309	     -0.06286936	    115.42231151	    -12.94608207	      2.66673801	    112.64651726	     21.55210923	    -27.34170109	      0.00000000	    116.79188230	     -7.44291171	      4.84698660	    111.74039083	     24.28277517	    -12.54910074	      0.00000000	    -32.56042445	      1.97301083	      1.13377318	    139.73691505	     -4.91316152	     59.05367198	     16.97351331	     56.33271817	    138.37859365	     -1.64544459	     51.00018864	     11.95433279	     39.42651419
      9.01666670	    -24.69409917	     -2.13535300	      5.17461208	      0.67721334	      0.45111413	     -0.06364368	    116.38167825	    -13.66031367	      2.73272956	    113.70652490	     22.16260420	    -26.81539343	      0.00000000	    118.00738668	     -7.14013127	      5.11153103	    112.60064000	     23.81496226	    -12.58010337	      0.00000000	    -31.81856420	      2.53512102	      0.76313566	    138.27327829	     -5.48389310	     59.42956565	     16.65054470	     56.06392483	    137.48987226	     -1.44982724	     51.43705139	     11.57374300	     38.84423508
      9.03333330	    -24.38376919	     -2.26347409	      5.32588257	      0.67636072	      0.44681610	     -0.06292743	    116.65314382	    -13.99995997	      2.83587549	    114.67014340	     22.14878472	    -26.64635788	      0.00000000	    118.48129766	     -7.17244384	      5.27567711	    113.43783039	     23.56979039	    -12.43645705	      0.00000000	    -32.12256888	      2.62373381	      0.68853626	    137.69275585	     -6.06139572	     59.53607562	     16.33474353	     55.96590376	    137.22594412	     -1.37344183	     51.58779330	     11.56239959	     38.66317775
